# xmcd
#
# Track frame offsets: 
#        150
#        25245
#        43759
#        61593
#        79227
#        95404
#        116398
#        138262
#        157152
#        170627
#
# Disc length: 2507 seconds
#
# Revision: 0
# Processed by: cddbd v1.5.2PL0 Copyright (c) Steve Scherf et al.
# Submitted via: ExactAudioCopy v1.3
#
DISCID=7d09c90a
DTITLE=Brandon Rhyder - Brandon Rhyder
DYEAR=2017
DGENRE=Country
TTITLE0=Evergreen
TTITLE1=They Need Each Other
TTITLE2=Shake
TTITLE3=Let's Blow Off Monday
TTITLE4=No Time For That
TTITLE5=The Huntin' Song
TTITLE6=I Hate This Town
TTITLE7=Half The Time I'm Crazy
TTITLE8=Good Morning Sunrise
TTITLE9=C'mon Baby Hold On
EXTD=
EXTT0=
EXTT1=
EXTT2=
EXTT3=
EXTT4=
EXTT5=
EXTT6=
EXTT7=
EXTT8=
EXTT9=
PLAYORDER=
